<?xml version="1.0" encoding="UTF-8" standalone="no"?>
<!-- Created with Inkscape (http://www.inkscape.org/) -->

<svg
   xmlns:dc="http://purl.org/dc/elements/1.1/"
   xmlns:cc="http://creativecommons.org/ns#"
   xmlns:rdf="http://www.w3.org/1999/02/22-rdf-syntax-ns#"
   xmlns:svg="http://www.w3.org/2000/svg"
   xmlns="http://www.w3.org/2000/svg"
   xmlns:sodipodi="http://sodipodi.sourceforge.net/DTD/sodipodi-0.dtd"
   xmlns:inkscape="http://www.inkscape.org/namespaces/inkscape"
   width="210mm"
   height="297mm"
   viewBox="0 0 210 297"
   version="1.1"
   id="svg989"
   inkscape:version="0.92.2 (5c3e80d, 2017-08-06)"
   sodipodi:docname="drawings.svg">
  <defs
     id="defs983" />
  <sodipodi:namedview
     id="base"
     pagecolor="#ffffff"
     bordercolor="#666666"
     borderopacity="1.0"
     inkscape:pageopacity="0.0"
     inkscape:pageshadow="2"
     inkscape:zoom="0.7"
     inkscape:cx="393.91388"
     inkscape:cy="738.67778"
     inkscape:document-units="mm"
     inkscape:current-layer="layer1"
     showgrid="false"
     showborder="false"
     inkscape:window-width="1920"
     inkscape:window-height="1017"
     inkscape:window-x="1912"
     inkscape:window-y="-8"
     inkscape:window-maximized="1" />
  <metadata
     id="metadata986">
    <rdf:RDF>
      <cc:Work
         rdf:about="">
        <dc:format>image/svg+xml</dc:format>
        <dc:type
           rdf:resource="http://purl.org/dc/dcmitype/StillImage" />
        <dc:title />
      </cc:Work>
    </rdf:RDF>
  </metadata>
  <g
     inkscape:label="Layer 1"
     inkscape:groupmode="layer"
     id="layer1">
    <rect
       style="opacity:1;fill:#999999;fill-opacity:0.59420286;stroke:#000000;stroke-width:0.78719455;stroke-linejoin:round;stroke-miterlimit:4;stroke-dasharray:none;stroke-opacity:1;paint-order:fill markers stroke"
       id="rect1594"
       width="132.50447"
       height="125.32293"
       x="21.816216"
       y="26.640621"
       ry="2.4499729"
       rx="2.2763832" />
    <rect
       style="opacity:1;fill:#ffff00;fill-opacity:1;stroke:#000000;stroke-width:0.9729799;stroke-linejoin:round;stroke-miterlimit:4;stroke-dasharray:none;stroke-opacity:1;paint-order:fill markers stroke"
       id="rect1534"
       width="49.827019"
       height="26.96702"
       x="39.673992"
       y="33.433392" />
    <rect
       y="33.433392"
       x="89.501007"
       height="26.96702"
       width="49.827019"
       id="rect1536"
       style="opacity:1;fill:#ffff00;fill-opacity:1;stroke:#000000;stroke-width:0.9729799;stroke-linejoin:round;stroke-miterlimit:4;stroke-dasharray:none;stroke-opacity:1;paint-order:fill markers stroke" />
    <g
       id="g1588"
       transform="translate(21.821796,66.058352)">
      <polygon
         id="polygon1538"
         style="fill:none;stroke:#000000;stroke-width:0.05mm"
         points="81.202,81.202 5.001,81.202 5.001,5.001 81.202,5.001 " />
      <polygon
         id="polygon1540"
         style="fill:none;stroke:#000000;stroke-width:0.05mm"
         points="37.601,66.146 37.601,65.225 34.301,65.225 34.301,66.146 32.576,66.146 32.576,69.376 31.051,69.376 31.051,64.676 17.051,64.676 17.051,69.376 15.526,69.376 15.526,66.146 13.801,66.146 13.801,65.225 10.501,65.225 10.501,66.146 8.776,66.146 8.776,69.376 7.95,69.376 7.95,72.176 8.776,72.176 8.776,78.446 10.501,78.446 10.501,79.426 13.801,79.426 13.801,78.446 15.526,78.446 15.526,73.976 17.051,73.976 17.051,78.676 31.051,78.676 31.051,73.976 32.576,73.976 32.576,78.446 34.301,78.446 34.301,79.426 37.601,79.426 37.601,78.446 39.326,78.446 39.326,72.176 40.151,72.176 40.151,69.376 39.326,69.376 39.326,66.146 " />
      <polygon
         id="polygon1542"
         style="fill:none;stroke:#000000;stroke-width:0.05mm"
         points="45.626,64.676 45.626,78.676 59.626,78.676 59.626,64.676 " />
      <polygon
         id="polygon1544"
         style="fill:none;stroke:#000000;stroke-width:0.05mm"
         points="77.206,53.626 77.206,51.901 78.126,51.901 78.126,48.6 77.206,48.6 77.206,46.876 73.976,46.876 73.976,46.051 71.176,46.051 71.176,46.876 64.906,46.876 64.906,48.6 63.926,48.6 63.926,51.901 64.906,51.901 64.906,53.626 69.376,53.626 69.376,55.151 64.676,55.151 64.676,69.151 69.376,69.151 69.376,70.676 64.906,70.676 64.906,72.401 63.926,72.401 63.926,75.701 64.906,75.701 64.906,77.426 71.176,77.426 71.176,78.251 73.976,78.251 73.976,77.426 77.206,77.426 77.206,75.701 78.126,75.701 78.126,72.401 77.206,72.401 77.206,70.676 73.976,70.676 73.976,69.151 78.676,69.151 78.676,55.151 73.976,55.151 73.976,53.626 " />
      <polygon
         id="polygon1546"
         style="fill:none;stroke:#000000;stroke-width:0.05mm"
         points="45.626,45.626 45.626,59.626 59.626,59.626 59.626,45.626 " />
      <polygon
         id="polygon1548"
         style="fill:none;stroke:#000000;stroke-width:0.05mm"
         points="26.576,45.626 26.576,59.626 40.576,59.626 40.576,45.626 " />
      <polygon
         id="polygon1550"
         style="fill:none;stroke:#000000;stroke-width:0.05mm"
         points="7.526,45.626 7.526,59.626 21.526,59.626 21.526,45.626 " />
      <polygon
         id="polygon1552"
         style="fill:none;stroke:#000000;stroke-width:0.05mm"
         points="45.626,26.576 45.626,40.576 59.626,40.576 59.626,26.576 " />
      <polygon
         id="polygon1554"
         style="fill:none;stroke:#000000;stroke-width:0.05mm"
         points="26.576,26.576 26.576,40.576 40.576,40.576 40.576,26.576 " />
      <polygon
         id="polygon1556"
         style="fill:none;stroke:#000000;stroke-width:0.05mm"
         points="7.526,26.576 7.526,40.576 21.526,40.576 21.526,26.576 " />
      <polygon
         id="polygon1558"
         style="fill:none;stroke:#000000;stroke-width:0.05mm"
         points="77.206,15.526 77.206,13.801 78.126,13.801 78.126,10.501 77.206,10.501 77.206,8.776 73.976,8.776 73.976,7.95 71.176,7.95 71.176,8.776 64.906,8.776 64.906,10.501 63.926,10.501 63.926,13.801 64.906,13.801 64.906,15.526 69.376,15.526 69.376,17.051 64.676,17.051 64.676,31.051 69.376,31.051 69.376,32.576 64.906,32.576 64.906,34.301 63.926,34.301 63.926,37.601 64.906,37.601 64.906,39.326 71.176,39.326 71.176,40.151 73.976,40.151 73.976,39.326 77.206,39.326 77.206,37.601 78.126,37.601 78.126,34.301 77.206,34.301 77.206,32.576 73.976,32.576 73.976,31.051 78.676,31.051 78.676,17.051 73.976,17.051 73.976,15.526 " />
      <polygon
         id="polygon1560"
         style="fill:none;stroke:#000000;stroke-width:0.05mm"
         points="45.626,7.526 45.626,21.526 59.626,21.526 59.626,7.526 " />
      <polygon
         id="polygon1562"
         style="fill:none;stroke:#000000;stroke-width:0.05mm"
         points="26.576,7.526 26.576,21.526 40.576,21.526 40.576,7.526 " />
      <polygon
         id="polygon1564"
         style="fill:none;stroke:#000000;stroke-width:0.05mm"
         points="7.526,7.526 7.526,21.526 21.526,21.526 21.526,7.526 " />
    </g>
    <rect
       style="opacity:1;fill:#ff0000;fill-opacity:1;stroke:#000000;stroke-width:0.61864358;stroke-linejoin:round;stroke-miterlimit:4;stroke-dasharray:none;stroke-opacity:1;paint-order:fill markers stroke"
       id="rect1592"
       width="39.381355"
       height="42.381355"
       x="108.43957"
       y="83.434906" />
    <rect
       style="opacity:1;fill:#00ff00;fill-opacity:0.59420286;stroke:#000000;stroke-width:0.67022938;stroke-linejoin:round;stroke-miterlimit:4;stroke-dasharray:none;stroke-opacity:1;paint-order:fill markers stroke"
       id="rect1596"
       width="7.1556821"
       height="3.641252"
       x="-0.28016225"
       y="49.687103"
       rx="1.9584414"
       ry="2.0643351"
       transform="matrix(0.74996725,-0.66147496,0.52436782,0.85149186,0,0)" />
    <rect
       transform="matrix(0.74996725,-0.66147496,0.52436782,0.85149186,0,0)"
       ry="2.0643351"
       rx="1.9584414"
       y="53.714279"
       x="-3.0959191"
       height="3.641252"
       width="7.1556821"
       id="rect1600"
       style="opacity:1;fill:#00ff00;fill-opacity:0.59420286;stroke:#000000;stroke-width:0.67022938;stroke-linejoin:round;stroke-miterlimit:4;stroke-dasharray:none;stroke-opacity:1;paint-order:fill markers stroke" />
    <rect
       style="opacity:1;fill:#00ff00;fill-opacity:0.59420286;stroke:#000000;stroke-width:0.67022938;stroke-linejoin:round;stroke-miterlimit:4;stroke-dasharray:none;stroke-opacity:1;paint-order:fill markers stroke"
       id="rect1602"
       width="7.1556821"
       height="3.641252"
       x="-6.1932516"
       y="58.144173"
       rx="1.9584414"
       ry="2.0643351"
       transform="matrix(0.74996725,-0.66147496,0.52436782,0.85149186,0,0)" />
    <ellipse
       style="opacity:1;fill:#000000;fill-opacity:0.59420286;stroke:#000000;stroke-width:1;stroke-linejoin:round;stroke-miterlimit:4;stroke-dasharray:none;stroke-opacity:1;paint-order:fill markers stroke"
       id="path1604"
       cx="140.56923"
       cy="139.83755"
       rx="6.9925594"
       ry="6.4255953" />
    <text
       xml:space="preserve"
       style="font-style:normal;font-variant:normal;font-weight:normal;font-stretch:normal;font-size:8.46666622px;line-height:125%;font-family:Arial;-inkscape-font-specification:Arial;letter-spacing:0px;word-spacing:0px;fill:#000000;fill-opacity:1;stroke:none;stroke-width:0.26458332px;stroke-linecap:butt;stroke-linejoin:miter;stroke-opacity:1"
       x="122.46429"
       y="109.5238"
       id="text1608"><tspan
         sodipodi:role="line"
         id="tspan1606"
         x="122.46429"
         y="109.5238"
         style="font-style:normal;font-variant:normal;font-weight:normal;font-stretch:normal;font-family:Arial;-inkscape-font-specification:Arial;stroke-width:0.26458332px">rfid</tspan></text>
    <text
       xml:space="preserve"
       style="font-style:normal;font-variant:normal;font-weight:normal;font-stretch:normal;font-size:7.76111126px;line-height:125%;font-family:Arial;-inkscape-font-specification:Arial;letter-spacing:0px;word-spacing:0px;fill:#000000;fill-opacity:1;stroke:none;stroke-width:0.26458332px;stroke-linecap:butt;stroke-linejoin:miter;stroke-opacity:1"
       x="163.6637"
       y="147.32143"
       id="text1612"><tspan
         sodipodi:role="line"
         id="tspan1610"
         x="163.6637"
         y="147.32143"
         style="font-style:normal;font-variant:normal;font-weight:normal;font-stretch:normal;font-family:Arial;-inkscape-font-specification:Arial;stroke-width:0.26458332px">speaker</tspan></text>
    <path
       style="fill:none;fill-rule:evenodd;stroke:#000000;stroke-width:0.26458332px;stroke-linecap:butt;stroke-linejoin:miter;stroke-opacity:1"
       d="m 146.27678,140.51785 c 1.29435,-0.39483 1.16831,1.15112 1.88988,1.51191 0.1127,0.0563 0.25846,-0.0398 0.37798,0 0.26727,0.0891 0.48868,0.28889 0.75595,0.37798 0.23906,0.0797 0.53057,-0.1127 0.75596,0 0.40631,0.20315 0.71214,0.58724 1.13392,0.75595 0.23397,0.0936 0.53058,-0.11269 0.75596,0 0.11269,0.0563 -0.11269,0.32163 0,0.37797 0.22538,0.11269 0.50886,-0.0494 0.75595,0 0.39068,0.0781 0.7474,0.28135 1.13393,0.37798 0.12223,0.0306 0.26528,-0.0563 0.37797,0 0.15937,0.0797 0.21861,0.29829 0.37798,0.37798 0.11269,0.0563 0.26099,-0.0468 0.37798,0 0.50397,0.25198 1.00793,0.50397 1.5119,0.75595 0.12599,0 0.25845,-0.0398 0.37798,0 0.26727,0.0891 0.48868,0.28888 0.75595,0.37798 0.23905,0.0797 0.53057,-0.1127 0.75595,0 0.15937,0.0797 0.21861,0.29829 0.37798,0.37797 0.11269,0.0564 0.26528,-0.0563 0.37797,0 0.15937,0.0797 0.21861,0.29829 0.37798,0.37798 0.22538,0.11269 0.57777,-0.17818 0.75595,0 0.19921,0.19921 0.17877,0.55674 0.37798,0.75595 0.17818,0.17818 0.5169,-0.0797 0.75595,0 0.25199,0.12599 0.50397,0.25198 0.75595,0.37798 0.12599,0 0.25845,-0.0399 0.37798,0 0.26727,0.0891 0.49701,0.267 0.75595,0.37797 0.62363,0.26727 1.26987,0.4804 1.88988,0.75595 1.82767,0.8123 0.90305,0.75596 1.88988,0.75596 2.14187,0 0.126,-0.25199 0.75596,0.37797 0.17818,0.17818 0.5169,-0.0797 0.75595,0 0.26727,0.0891 0.48868,0.28889 0.75595,0.37798 0.29574,0.0986 0.75595,-0.15821 0.75595,0 0,0.12599 -0.25198,0 -0.37797,0 -0.37798,0 -0.75595,0 -1.13393,0"
       id="path1614"
       inkscape:connector-curvature="0" />
    <text
       xml:space="preserve"
       style="font-style:normal;font-variant:normal;font-weight:normal;font-stretch:normal;font-size:6.3499999px;line-height:125%;font-family:Arial;-inkscape-font-specification:Arial;letter-spacing:0px;word-spacing:0px;fill:#000000;fill-opacity:1;stroke:none;stroke-width:0.26458332px;stroke-linecap:butt;stroke-linejoin:miter;stroke-opacity:1"
       x="0.3779771"
       y="43.377975"
       id="text1622"><tspan
         sodipodi:role="line"
         id="tspan1620"
         x="0.3779771"
         y="43.377975"
         style="font-style:normal;font-variant:normal;font-weight:normal;font-stretch:normal;font-family:Arial;-inkscape-font-specification:Arial;stroke-width:0.26458332px">power</tspan></text>
    <text
       id="text1626"
       y="48.669643"
       x="0.3779771"
       style="font-style:normal;font-variant:normal;font-weight:normal;font-stretch:normal;font-size:6.3499999px;line-height:125%;font-family:Arial;-inkscape-font-specification:Arial;letter-spacing:0px;word-spacing:0px;fill:#000000;fill-opacity:1;stroke:none;stroke-width:0.26458332px;stroke-linecap:butt;stroke-linejoin:miter;stroke-opacity:1"
       xml:space="preserve"><tspan
         style="font-style:normal;font-variant:normal;font-weight:normal;font-stretch:normal;font-family:Arial;-inkscape-font-specification:Arial;stroke-width:0.26458332px"
         y="48.669643"
         x="0.3779771"
         id="tspan1624"
         sodipodi:role="line">armed</tspan></text>
    <text
       xml:space="preserve"
       style="font-style:normal;font-variant:normal;font-weight:normal;font-stretch:normal;font-size:6.3499999px;line-height:125%;font-family:Arial;-inkscape-font-specification:Arial;letter-spacing:0px;word-spacing:0px;fill:#000000;fill-opacity:1;stroke:none;stroke-width:0.26458332px;stroke-linecap:butt;stroke-linejoin:miter;stroke-opacity:1"
       x="-0.37797529"
       y="54.717262"
       id="text1630"><tspan
         sodipodi:role="line"
         id="tspan1628"
         x="-0.37797529"
         y="54.717262"
         style="font-style:normal;font-variant:normal;font-weight:normal;font-stretch:normal;font-family:Arial;-inkscape-font-specification:Arial;stroke-width:0.26458332px">detect</tspan></text>
    <text
       xml:space="preserve"
       style="font-style:normal;font-variant:normal;font-weight:normal;font-stretch:normal;font-size:14.11111069px;line-height:125%;font-family:Audiowide;-inkscape-font-specification:Audiowide;letter-spacing:0px;word-spacing:0px;fill:#000000;fill-opacity:1;stroke:none;stroke-width:0.26458332px;stroke-linecap:butt;stroke-linejoin:miter;stroke-opacity:1"
       x="40.972618"
       y="52.07143"
       id="text1638"><tspan
         sodipodi:role="line"
         id="tspan1636"
         x="40.972618"
         y="52.07143"
         style="stroke-width:0.26458332px">ABCD</tspan></text>
    <text
       id="text1642"
       y="52.07143"
       x="90.865479"
       style="font-style:normal;font-variant:normal;font-weight:normal;font-stretch:normal;font-size:14.11111069px;line-height:125%;font-family:Audiowide;-inkscape-font-specification:Audiowide;letter-spacing:0px;word-spacing:0px;fill:#000000;fill-opacity:1;stroke:none;stroke-width:0.26458332px;stroke-linecap:butt;stroke-linejoin:miter;stroke-opacity:1"
       xml:space="preserve"><tspan
         style="stroke-width:0.26458332px"
         y="52.07143"
         x="90.865479"
         id="tspan1640"
         sodipodi:role="line">ABCD</tspan></text>
    <text
       xml:space="preserve"
       style="font-style:normal;font-variant:normal;font-weight:normal;font-stretch:normal;font-size:9.87777805px;line-height:125%;font-family:Arial;-inkscape-font-specification:Arial;letter-spacing:0px;word-spacing:0px;fill:#000000;fill-opacity:1;stroke:none;stroke-width:0.26458332px;stroke-linecap:butt;stroke-linejoin:miter;stroke-opacity:1"
       x="38.19244"
       y="106.63435"
       id="text1646"><tspan
         sodipodi:role="line"
         id="tspan1644"
         x="38.19244"
         y="106.63435"
         style="font-style:normal;font-variant:normal;font-weight:normal;font-stretch:normal;font-family:Arial;-inkscape-font-specification:Arial;stroke-width:0.26458332px">KEYPAD</tspan></text>
    <rect
       rx="2.222353"
       ry="3.3416922"
       y="26.32325"
       x="-138.3851"
       height="170.93686"
       width="129.35948"
       id="rect1648"
       style="opacity:1;fill:#999999;fill-opacity:0.59420286;stroke:#000000;stroke-width:0.90838206;stroke-linejoin:round;stroke-miterlimit:4;stroke-dasharray:none;stroke-opacity:1;paint-order:fill markers stroke" />
    <rect
       y="33.055412"
       x="-120.58791"
       height="26.96702"
       width="49.827019"
       id="rect1650"
       style="opacity:1;fill:#ffff00;fill-opacity:1;stroke:#000000;stroke-width:0.9729799;stroke-linejoin:round;stroke-miterlimit:4;stroke-dasharray:none;stroke-opacity:1;paint-order:fill markers stroke" />
    <rect
       style="opacity:1;fill:#ffff00;fill-opacity:1;stroke:#000000;stroke-width:0.9729799;stroke-linejoin:round;stroke-miterlimit:4;stroke-dasharray:none;stroke-opacity:1;paint-order:fill markers stroke"
       id="rect1652"
       width="49.827019"
       height="26.96702"
       x="-70.760902"
       y="33.055412" />
    <g
       transform="translate(-114.62759,61.976182)"
       id="g1682">
      <polygon
         points="81.202,81.202 5.001,81.202 5.001,5.001 81.202,5.001 "
         style="fill:none;stroke:#000000;stroke-width:0.05mm"
         id="polygon1654" />
      <polygon
         points="8.776,66.146 8.776,69.376 7.95,69.376 7.95,72.176 8.776,72.176 8.776,78.446 10.501,78.446 10.501,79.426 13.801,79.426 13.801,78.446 15.526,78.446 15.526,73.976 17.051,73.976 17.051,78.676 31.051,78.676 31.051,73.976 32.576,73.976 32.576,78.446 34.301,78.446 34.301,79.426 37.601,79.426 37.601,78.446 39.326,78.446 39.326,72.176 40.151,72.176 40.151,69.376 39.326,69.376 39.326,66.146 37.601,66.146 37.601,65.225 34.301,65.225 34.301,66.146 32.576,66.146 32.576,69.376 31.051,69.376 31.051,64.676 17.051,64.676 17.051,69.376 15.526,69.376 15.526,66.146 13.801,66.146 13.801,65.225 10.501,65.225 10.501,66.146 "
         style="fill:none;stroke:#000000;stroke-width:0.05mm"
         id="polygon1656" />
      <polygon
         points="45.626,64.676 45.626,78.676 59.626,78.676 59.626,64.676 "
         style="fill:none;stroke:#000000;stroke-width:0.05mm"
         id="polygon1658" />
      <polygon
         points="69.376,53.626 69.376,55.151 64.676,55.151 64.676,69.151 69.376,69.151 69.376,70.676 64.906,70.676 64.906,72.401 63.926,72.401 63.926,75.701 64.906,75.701 64.906,77.426 71.176,77.426 71.176,78.251 73.976,78.251 73.976,77.426 77.206,77.426 77.206,75.701 78.126,75.701 78.126,72.401 77.206,72.401 77.206,70.676 73.976,70.676 73.976,69.151 78.676,69.151 78.676,55.151 73.976,55.151 73.976,53.626 77.206,53.626 77.206,51.901 78.126,51.901 78.126,48.6 77.206,48.6 77.206,46.876 73.976,46.876 73.976,46.051 71.176,46.051 71.176,46.876 64.906,46.876 64.906,48.6 63.926,48.6 63.926,51.901 64.906,51.901 64.906,53.626 "
         style="fill:none;stroke:#000000;stroke-width:0.05mm"
         id="polygon1660" />
      <polygon
         points="45.626,45.626 45.626,59.626 59.626,59.626 59.626,45.626 "
         style="fill:none;stroke:#000000;stroke-width:0.05mm"
         id="polygon1662" />
      <polygon
         points="26.576,45.626 26.576,59.626 40.576,59.626 40.576,45.626 "
         style="fill:none;stroke:#000000;stroke-width:0.05mm"
         id="polygon1664" />
      <polygon
         points="7.526,45.626 7.526,59.626 21.526,59.626 21.526,45.626 "
         style="fill:none;stroke:#000000;stroke-width:0.05mm"
         id="polygon1666" />
      <polygon
         points="45.626,26.576 45.626,40.576 59.626,40.576 59.626,26.576 "
         style="fill:none;stroke:#000000;stroke-width:0.05mm"
         id="polygon1668" />
      <polygon
         points="26.576,26.576 26.576,40.576 40.576,40.576 40.576,26.576 "
         style="fill:none;stroke:#000000;stroke-width:0.05mm"
         id="polygon1670" />
      <polygon
         points="7.526,26.576 7.526,40.576 21.526,40.576 21.526,26.576 "
         style="fill:none;stroke:#000000;stroke-width:0.05mm"
         id="polygon1672" />
      <polygon
         points="69.376,15.526 69.376,17.051 64.676,17.051 64.676,31.051 69.376,31.051 69.376,32.576 64.906,32.576 64.906,34.301 63.926,34.301 63.926,37.601 64.906,37.601 64.906,39.326 71.176,39.326 71.176,40.151 73.976,40.151 73.976,39.326 77.206,39.326 77.206,37.601 78.126,37.601 78.126,34.301 77.206,34.301 77.206,32.576 73.976,32.576 73.976,31.051 78.676,31.051 78.676,17.051 73.976,17.051 73.976,15.526 77.206,15.526 77.206,13.801 78.126,13.801 78.126,10.501 77.206,10.501 77.206,8.776 73.976,8.776 73.976,7.95 71.176,7.95 71.176,8.776 64.906,8.776 64.906,10.501 63.926,10.501 63.926,13.801 64.906,13.801 64.906,15.526 "
         style="fill:none;stroke:#000000;stroke-width:0.05mm"
         id="polygon1674" />
      <polygon
         points="45.626,7.526 45.626,21.526 59.626,21.526 59.626,7.526 "
         style="fill:none;stroke:#000000;stroke-width:0.05mm"
         id="polygon1676" />
      <polygon
         points="26.576,7.526 26.576,21.526 40.576,21.526 40.576,7.526 "
         style="fill:none;stroke:#000000;stroke-width:0.05mm"
         id="polygon1678" />
      <polygon
         points="7.526,7.526 7.526,21.526 21.526,21.526 21.526,7.526 "
         style="fill:none;stroke:#000000;stroke-width:0.05mm"
         id="polygon1680" />
    </g>
    <rect
       y="148.14435"
       x="-92.038994"
       height="42.381355"
       width="39.381355"
       id="rect1684"
       style="opacity:1;fill:#ff0000;fill-opacity:1;stroke:#000000;stroke-width:0.61864358;stroke-linejoin:round;stroke-miterlimit:4;stroke-dasharray:none;stroke-opacity:1;paint-order:fill markers stroke" />
    <rect
       transform="matrix(0.74996725,-0.66147496,0.52436782,0.85149186,0,0)"
       ry="2.0643351"
       rx="1.9584414"
       y="-58.175301"
       x="-138.55597"
       height="3.641252"
       width="7.1556821"
       id="rect1686"
       style="opacity:1;fill:#00ff00;fill-opacity:0.59420286;stroke:#000000;stroke-width:0.67022938;stroke-linejoin:round;stroke-miterlimit:4;stroke-dasharray:none;stroke-opacity:1;paint-order:fill markers stroke" />
    <rect
       style="opacity:1;fill:#00ff00;fill-opacity:0.59420286;stroke:#000000;stroke-width:0.67022938;stroke-linejoin:round;stroke-miterlimit:4;stroke-dasharray:none;stroke-opacity:1;paint-order:fill markers stroke"
       id="rect1688"
       width="7.1556821"
       height="3.641252"
       x="-141.37173"
       y="-54.148125"
       rx="1.9584414"
       ry="2.0643351"
       transform="matrix(0.74996725,-0.66147496,0.52436782,0.85149186,0,0)" />
    <rect
       transform="matrix(0.74996725,-0.66147496,0.52436782,0.85149186,0,0)"
       ry="2.0643351"
       rx="1.9584414"
       y="-49.718239"
       x="-144.46906"
       height="3.641252"
       width="7.1556821"
       id="rect1690"
       style="opacity:1;fill:#00ff00;fill-opacity:0.59420286;stroke:#000000;stroke-width:0.67022938;stroke-linejoin:round;stroke-miterlimit:4;stroke-dasharray:none;stroke-opacity:1;paint-order:fill markers stroke" />
    <ellipse
       ry="6.4255953"
       rx="6.9925594"
       cy="169.69763"
       cx="-30.653975"
       id="ellipse1692"
       style="opacity:1;fill:#000000;fill-opacity:0.59420286;stroke:#000000;stroke-width:1;stroke-linejoin:round;stroke-miterlimit:4;stroke-dasharray:none;stroke-opacity:1;paint-order:fill markers stroke" />
    <text
       id="text1696"
       y="173.09933"
       x="-78.997009"
       style="font-style:normal;font-variant:normal;font-weight:normal;font-stretch:normal;font-size:8.46666622px;line-height:125%;font-family:Arial;-inkscape-font-specification:Arial;letter-spacing:0px;word-spacing:0px;fill:#000000;fill-opacity:1;stroke:none;stroke-width:0.26458332px;stroke-linecap:butt;stroke-linejoin:miter;stroke-opacity:1"
       xml:space="preserve"><tspan
         style="font-style:normal;font-variant:normal;font-weight:normal;font-stretch:normal;font-family:Arial;-inkscape-font-specification:Arial;stroke-width:0.26458332px"
         y="173.09933"
         x="-78.997009"
         id="tspan1694"
         sodipodi:role="line">rfid</tspan></text>
    <text
       id="text1706"
       y="41.488087"
       x="-164.41965"
       style="font-style:normal;font-variant:normal;font-weight:normal;font-stretch:normal;font-size:6.3499999px;line-height:125%;font-family:Arial;-inkscape-font-specification:Arial;letter-spacing:0px;word-spacing:0px;fill:#000000;fill-opacity:1;stroke:none;stroke-width:0.26458332px;stroke-linecap:butt;stroke-linejoin:miter;stroke-opacity:1"
       xml:space="preserve"><tspan
         style="font-style:normal;font-variant:normal;font-weight:normal;font-stretch:normal;font-family:Arial;-inkscape-font-specification:Arial;stroke-width:0.26458332px"
         y="41.488087"
         x="-164.41965"
         id="tspan1704"
         sodipodi:role="line">power</tspan></text>
    <text
       xml:space="preserve"
       style="font-style:normal;font-variant:normal;font-weight:normal;font-stretch:normal;font-size:6.3499999px;line-height:125%;font-family:Arial;-inkscape-font-specification:Arial;letter-spacing:0px;word-spacing:0px;fill:#000000;fill-opacity:1;stroke:none;stroke-width:0.26458332px;stroke-linecap:butt;stroke-linejoin:miter;stroke-opacity:1"
       x="-164.41965"
       y="46.779758"
       id="text1710"><tspan
         sodipodi:role="line"
         id="tspan1708"
         x="-164.41965"
         y="46.779758"
         style="font-style:normal;font-variant:normal;font-weight:normal;font-stretch:normal;font-family:Arial;-inkscape-font-specification:Arial;stroke-width:0.26458332px">armed</tspan></text>
    <text
       id="text1714"
       y="52.827381"
       x="-165.1756"
       style="font-style:normal;font-variant:normal;font-weight:normal;font-stretch:normal;font-size:6.3499999px;line-height:125%;font-family:Arial;-inkscape-font-specification:Arial;letter-spacing:0px;word-spacing:0px;fill:#000000;fill-opacity:1;stroke:none;stroke-width:0.26458332px;stroke-linecap:butt;stroke-linejoin:miter;stroke-opacity:1"
       xml:space="preserve"><tspan
         style="font-style:normal;font-variant:normal;font-weight:normal;font-stretch:normal;font-family:Arial;-inkscape-font-specification:Arial;stroke-width:0.26458332px"
         y="52.827381"
         x="-165.1756"
         id="tspan1712"
         sodipodi:role="line">detect</tspan></text>
    <text
       id="text1718"
       y="51.693459"
       x="-119.28928"
       style="font-style:normal;font-variant:normal;font-weight:normal;font-stretch:normal;font-size:14.11111069px;line-height:125%;font-family:Audiowide;-inkscape-font-specification:Audiowide;letter-spacing:0px;word-spacing:0px;fill:#000000;fill-opacity:1;stroke:none;stroke-width:0.26458332px;stroke-linecap:butt;stroke-linejoin:miter;stroke-opacity:1"
       xml:space="preserve"><tspan
         style="stroke-width:0.26458332px"
         y="51.693459"
         x="-119.28928"
         id="tspan1716"
         sodipodi:role="line">ABCD</tspan></text>
    <text
       xml:space="preserve"
       style="font-style:normal;font-variant:normal;font-weight:normal;font-stretch:normal;font-size:14.11111069px;line-height:125%;font-family:Audiowide;-inkscape-font-specification:Audiowide;letter-spacing:0px;word-spacing:0px;fill:#000000;fill-opacity:1;stroke:none;stroke-width:0.26458332px;stroke-linecap:butt;stroke-linejoin:miter;stroke-opacity:1"
       x="-69.396431"
       y="51.693459"
       id="text1722"><tspan
         sodipodi:role="line"
         id="tspan1720"
         x="-69.396431"
         y="51.693459"
         style="stroke-width:0.26458332px">ABCD</tspan></text>
    <text
       id="text1726"
       y="102.55225"
       x="-98.78611"
       style="font-style:normal;font-variant:normal;font-weight:normal;font-stretch:normal;font-size:9.87777805px;line-height:125%;font-family:Arial;-inkscape-font-specification:Arial;letter-spacing:0px;word-spacing:0px;fill:#000000;fill-opacity:1;stroke:none;stroke-width:0.26458332px;stroke-linecap:butt;stroke-linejoin:miter;stroke-opacity:1"
       xml:space="preserve"><tspan
         style="font-style:normal;font-variant:normal;font-weight:normal;font-stretch:normal;font-family:Arial;-inkscape-font-specification:Arial;stroke-width:0.26458332px"
         y="102.55225"
         x="-98.78611"
         id="tspan1724"
         sodipodi:role="line">KEYPAD</tspan></text>
    <rect
       rx="3.1894927"
       ry="2.4471564"
       y="25.578735"
       x="232.04301"
       height="125.17886"
       width="185.65504"
       id="rect892"
       style="opacity:1;fill:#999999;fill-opacity:0.59420286;stroke:#000000;stroke-width:0.93125892;stroke-linejoin:round;stroke-miterlimit:4;stroke-dasharray:none;stroke-opacity:1;paint-order:fill markers stroke" />
    <rect
       y="32.299469"
       x="249.82875"
       height="26.96702"
       width="49.827019"
       id="rect894"
       style="opacity:1;fill:#ffff00;fill-opacity:1;stroke:#000000;stroke-width:0.9729799;stroke-linejoin:round;stroke-miterlimit:4;stroke-dasharray:none;stroke-opacity:1;paint-order:fill markers stroke" />
    <rect
       style="opacity:1;fill:#ffff00;fill-opacity:1;stroke:#000000;stroke-width:0.9729799;stroke-linejoin:round;stroke-miterlimit:4;stroke-dasharray:none;stroke-opacity:1;paint-order:fill markers stroke"
       id="rect896"
       width="49.827019"
       height="26.96702"
       x="299.65576"
       y="32.299469" />
    <g
       transform="translate(282.45554,61.957926)"
       id="g926">
      <polygon
         points="81.202,5.001 81.202,81.202 5.001,81.202 5.001,5.001 "
         style="fill:none;stroke:#000000;stroke-width:0.05mm"
         id="polygon898" />
      <polygon
         points="34.301,66.146 32.576,66.146 32.576,69.376 31.051,69.376 31.051,64.676 17.051,64.676 17.051,69.376 15.526,69.376 15.526,66.146 13.801,66.146 13.801,65.225 10.501,65.225 10.501,66.146 8.776,66.146 8.776,69.376 7.95,69.376 7.95,72.176 8.776,72.176 8.776,78.446 10.501,78.446 10.501,79.426 13.801,79.426 13.801,78.446 15.526,78.446 15.526,73.976 17.051,73.976 17.051,78.676 31.051,78.676 31.051,73.976 32.576,73.976 32.576,78.446 34.301,78.446 34.301,79.426 37.601,79.426 37.601,78.446 39.326,78.446 39.326,72.176 40.151,72.176 40.151,69.376 39.326,69.376 39.326,66.146 37.601,66.146 37.601,65.225 34.301,65.225 "
         style="fill:none;stroke:#000000;stroke-width:0.05mm"
         id="polygon900" />
      <polygon
         points="59.626,64.676 45.626,64.676 45.626,78.676 59.626,78.676 "
         style="fill:none;stroke:#000000;stroke-width:0.05mm"
         id="polygon902" />
      <polygon
         points="78.126,48.6 77.206,48.6 77.206,46.876 73.976,46.876 73.976,46.051 71.176,46.051 71.176,46.876 64.906,46.876 64.906,48.6 63.926,48.6 63.926,51.901 64.906,51.901 64.906,53.626 69.376,53.626 69.376,55.151 64.676,55.151 64.676,69.151 69.376,69.151 69.376,70.676 64.906,70.676 64.906,72.401 63.926,72.401 63.926,75.701 64.906,75.701 64.906,77.426 71.176,77.426 71.176,78.251 73.976,78.251 73.976,77.426 77.206,77.426 77.206,75.701 78.126,75.701 78.126,72.401 77.206,72.401 77.206,70.676 73.976,70.676 73.976,69.151 78.676,69.151 78.676,55.151 73.976,55.151 73.976,53.626 77.206,53.626 77.206,51.901 78.126,51.901 "
         style="fill:none;stroke:#000000;stroke-width:0.05mm"
         id="polygon904" />
      <polygon
         points="59.626,45.626 45.626,45.626 45.626,59.626 59.626,59.626 "
         style="fill:none;stroke:#000000;stroke-width:0.05mm"
         id="polygon906" />
      <polygon
         points="40.576,45.626 26.576,45.626 26.576,59.626 40.576,59.626 "
         style="fill:none;stroke:#000000;stroke-width:0.05mm"
         id="polygon908" />
      <polygon
         points="21.526,45.626 7.526,45.626 7.526,59.626 21.526,59.626 "
         style="fill:none;stroke:#000000;stroke-width:0.05mm"
         id="polygon910" />
      <polygon
         points="59.626,26.576 45.626,26.576 45.626,40.576 59.626,40.576 "
         style="fill:none;stroke:#000000;stroke-width:0.05mm"
         id="polygon912" />
      <polygon
         points="40.576,26.576 26.576,26.576 26.576,40.576 40.576,40.576 "
         style="fill:none;stroke:#000000;stroke-width:0.05mm"
         id="polygon914" />
      <polygon
         points="21.526,26.576 7.526,26.576 7.526,40.576 21.526,40.576 "
         style="fill:none;stroke:#000000;stroke-width:0.05mm"
         id="polygon916" />
      <polygon
         points="78.126,10.501 77.206,10.501 77.206,8.776 73.976,8.776 73.976,7.95 71.176,7.95 71.176,8.776 64.906,8.776 64.906,10.501 63.926,10.501 63.926,13.801 64.906,13.801 64.906,15.526 69.376,15.526 69.376,17.051 64.676,17.051 64.676,31.051 69.376,31.051 69.376,32.576 64.906,32.576 64.906,34.301 63.926,34.301 63.926,37.601 64.906,37.601 64.906,39.326 71.176,39.326 71.176,40.151 73.976,40.151 73.976,39.326 77.206,39.326 77.206,37.601 78.126,37.601 78.126,34.301 77.206,34.301 77.206,32.576 73.976,32.576 73.976,31.051 78.676,31.051 78.676,17.051 73.976,17.051 73.976,15.526 77.206,15.526 77.206,13.801 78.126,13.801 "
         style="fill:none;stroke:#000000;stroke-width:0.05mm"
         id="polygon918" />
      <polygon
         points="59.626,7.526 45.626,7.526 45.626,21.526 59.626,21.526 "
         style="fill:none;stroke:#000000;stroke-width:0.05mm"
         id="polygon920" />
      <polygon
         points="40.576,7.526 26.576,7.526 26.576,21.526 40.576,21.526 "
         style="fill:none;stroke:#000000;stroke-width:0.05mm"
         id="polygon922" />
      <polygon
         points="21.526,7.526 7.526,7.526 7.526,21.526 21.526,21.526 "
         style="fill:none;stroke:#000000;stroke-width:0.05mm"
         id="polygon924" />
    </g>
    <rect
       y="80.789078"
       x="374.91278"
       height="42.381355"
       width="39.381355"
       id="rect928"
       style="opacity:1;fill:#ff0000;fill-opacity:1;stroke:#000000;stroke-width:0.61864358;stroke-linejoin:round;stroke-miterlimit:4;stroke-dasharray:none;stroke-opacity:1;paint-order:fill markers stroke" />
    <rect
       transform="matrix(0.74996725,-0.66147496,0.52436782,0.85149186,0,0)"
       ry="2.0643351"
       rx="1.9584414"
       y="189.88913"
       x="181.91089"
       height="3.641252"
       width="7.1556821"
       id="rect930"
       style="opacity:1;fill:#00ff00;fill-opacity:0.59420286;stroke:#000000;stroke-width:0.67022938;stroke-linejoin:round;stroke-miterlimit:4;stroke-dasharray:none;stroke-opacity:1;paint-order:fill markers stroke" />
    <rect
       style="opacity:1;fill:#00ff00;fill-opacity:0.59420286;stroke:#000000;stroke-width:0.67022938;stroke-linejoin:round;stroke-miterlimit:4;stroke-dasharray:none;stroke-opacity:1;paint-order:fill markers stroke"
       id="rect932"
       width="7.1556821"
       height="3.641252"
       x="179.09514"
       y="193.91631"
       rx="1.9584414"
       ry="2.0643351"
       transform="matrix(0.74996725,-0.66147496,0.52436782,0.85149186,0,0)" />
    <rect
       transform="matrix(0.74996725,-0.66147496,0.52436782,0.85149186,0,0)"
       ry="2.0643351"
       rx="1.9584414"
       y="198.34621"
       x="175.9978"
       height="3.641252"
       width="7.1556821"
       id="rect934"
       style="opacity:1;fill:#00ff00;fill-opacity:0.59420286;stroke:#000000;stroke-width:0.67022938;stroke-linejoin:round;stroke-miterlimit:4;stroke-dasharray:none;stroke-opacity:1;paint-order:fill markers stroke" />
    <ellipse
       ry="6.4255953"
       rx="6.9925594"
       cy="99.394104"
       cx="260.76566"
       id="ellipse936"
       style="opacity:1;fill:#000000;fill-opacity:0.59420286;stroke:#000000;stroke-width:1;stroke-linejoin:round;stroke-miterlimit:4;stroke-dasharray:none;stroke-opacity:1;paint-order:fill markers stroke" />
    <text
       id="text940"
       y="104.23213"
       x="389.31546"
       style="font-style:normal;font-variant:normal;font-weight:normal;font-stretch:normal;font-size:8.46666622px;line-height:125%;font-family:Arial;-inkscape-font-specification:Arial;letter-spacing:0px;word-spacing:0px;fill:#000000;fill-opacity:1;stroke:none;stroke-width:0.26458332px;stroke-linecap:butt;stroke-linejoin:miter;stroke-opacity:1"
       xml:space="preserve"><tspan
         style="font-style:normal;font-variant:normal;font-weight:normal;font-stretch:normal;font-family:Arial;-inkscape-font-specification:Arial;stroke-width:0.26458332px"
         y="104.23213"
         x="389.31546"
         id="tspan938"
         sodipodi:role="line">rfid</tspan></text>
    <text
       id="text946"
       y="42.244049"
       x="210.53275"
       style="font-style:normal;font-variant:normal;font-weight:normal;font-stretch:normal;font-size:6.3499999px;line-height:125%;font-family:Arial;-inkscape-font-specification:Arial;letter-spacing:0px;word-spacing:0px;fill:#000000;fill-opacity:1;stroke:none;stroke-width:0.26458332px;stroke-linecap:butt;stroke-linejoin:miter;stroke-opacity:1"
       xml:space="preserve"><tspan
         style="font-style:normal;font-variant:normal;font-weight:normal;font-stretch:normal;font-family:Arial;-inkscape-font-specification:Arial;stroke-width:0.26458332px"
         y="42.244049"
         x="210.53275"
         id="tspan944"
         sodipodi:role="line">power</tspan></text>
    <text
       xml:space="preserve"
       style="font-style:normal;font-variant:normal;font-weight:normal;font-stretch:normal;font-size:6.3499999px;line-height:125%;font-family:Arial;-inkscape-font-specification:Arial;letter-spacing:0px;word-spacing:0px;fill:#000000;fill-opacity:1;stroke:none;stroke-width:0.26458332px;stroke-linecap:butt;stroke-linejoin:miter;stroke-opacity:1"
       x="210.53275"
       y="47.535721"
       id="text950"><tspan
         sodipodi:role="line"
         id="tspan948"
         x="210.53275"
         y="47.535721"
         style="font-style:normal;font-variant:normal;font-weight:normal;font-stretch:normal;font-family:Arial;-inkscape-font-specification:Arial;stroke-width:0.26458332px">armed</tspan></text>
    <text
       id="text954"
       y="53.583328"
       x="209.77679"
       style="font-style:normal;font-variant:normal;font-weight:normal;font-stretch:normal;font-size:6.3499999px;line-height:125%;font-family:Arial;-inkscape-font-specification:Arial;letter-spacing:0px;word-spacing:0px;fill:#000000;fill-opacity:1;stroke:none;stroke-width:0.26458332px;stroke-linecap:butt;stroke-linejoin:miter;stroke-opacity:1"
       xml:space="preserve"><tspan
         style="font-style:normal;font-variant:normal;font-weight:normal;font-stretch:normal;font-family:Arial;-inkscape-font-specification:Arial;stroke-width:0.26458332px"
         y="53.583328"
         x="209.77679"
         id="tspan952"
         sodipodi:role="line">detect</tspan></text>
    <text
       id="text958"
       y="50.9375"
       x="251.12738"
       style="font-style:normal;font-variant:normal;font-weight:normal;font-stretch:normal;font-size:14.11111069px;line-height:125%;font-family:Audiowide;-inkscape-font-specification:Audiowide;letter-spacing:0px;word-spacing:0px;fill:#000000;fill-opacity:1;stroke:none;stroke-width:0.26458332px;stroke-linecap:butt;stroke-linejoin:miter;stroke-opacity:1"
       xml:space="preserve"><tspan
         style="stroke-width:0.26458332px"
         y="50.9375"
         x="251.12738"
         id="tspan956"
         sodipodi:role="line">ABCD</tspan></text>
    <text
       xml:space="preserve"
       style="font-style:normal;font-variant:normal;font-weight:normal;font-stretch:normal;font-size:14.11111069px;line-height:125%;font-family:Audiowide;-inkscape-font-specification:Audiowide;letter-spacing:0px;word-spacing:0px;fill:#000000;fill-opacity:1;stroke:none;stroke-width:0.26458332px;stroke-linecap:butt;stroke-linejoin:miter;stroke-opacity:1"
       x="301.02023"
       y="50.9375"
       id="text962"><tspan
         sodipodi:role="line"
         id="tspan960"
         x="301.02023"
         y="50.9375"
         style="stroke-width:0.26458332px">ABCD</tspan></text>
    <text
       id="text966"
       y="102.8546"
       x="305.04364"
       style="font-style:normal;font-variant:normal;font-weight:normal;font-stretch:normal;font-size:9.87777805px;line-height:125%;font-family:Arial;-inkscape-font-specification:Arial;letter-spacing:0px;word-spacing:0px;fill:#000000;fill-opacity:1;stroke:none;stroke-width:0.26458332px;stroke-linecap:butt;stroke-linejoin:miter;stroke-opacity:1"
       xml:space="preserve"><tspan
         style="font-style:normal;font-variant:normal;font-weight:normal;font-stretch:normal;font-family:Arial;-inkscape-font-specification:Arial;stroke-width:0.26458332px"
         y="102.8546"
         x="305.04364"
         id="tspan964"
         sodipodi:role="line">KEYPAD</tspan></text>
    <rect
       y="32.299469"
       x="349.48279"
       height="26.96702"
       width="49.827019"
       id="rect968"
       style="opacity:1;fill:#ffff00;fill-opacity:1;stroke:#000000;stroke-width:0.9729799;stroke-linejoin:round;stroke-miterlimit:4;stroke-dasharray:none;stroke-opacity:1;paint-order:fill markers stroke" />
    <text
       id="text972"
       y="50.559525"
       x="351.29108"
       style="font-style:normal;font-variant:normal;font-weight:normal;font-stretch:normal;font-size:14.11111069px;line-height:125%;font-family:Audiowide;-inkscape-font-specification:Audiowide;letter-spacing:0px;word-spacing:0px;fill:#000000;fill-opacity:1;stroke:none;stroke-width:0.26458332px;stroke-linecap:butt;stroke-linejoin:miter;stroke-opacity:1"
       xml:space="preserve"><tspan
         style="stroke-width:0.26458332px"
         y="50.559525"
         x="351.29108"
         id="tspan970"
         sodipodi:role="line">ABCD</tspan></text>
  </g>
</svg>
