<?xml version="1.0" encoding="UTF-8"?>
<!-- Generated by SVGo -->
<svg width="86.202mm" height="86.202mm" viewBox="0.000 0.000 86.202 86.202" xmlns="http://www.w3.org/2000/svg" xmlns:xlink="http://www.w3.org/1999/xlink">
<polygon points="81.202,81.202 5.001,81.202 5.001,5.001 81.202,5.001" style="fill:none;stroke-width:0.050000mm;stroke:black"/>
<polygon points="17.051,64.676 17.051,69.376 15.526,69.376 15.526,66.146 13.801,66.146 13.801,65.225 10.501,65.225 10.501,66.146 8.776,66.146 8.776,69.376 7.950,69.376 7.950,72.176 8.776,72.176 8.776,78.446 10.501,78.446 10.501,79.426 13.801,79.426 13.801,78.446 15.526,78.446 15.526,73.976 17.051,73.976 17.051,78.676 31.051,78.676 31.051,73.976 32.576,73.976 32.576,78.446 34.301,78.446 34.301,79.426 37.601,79.426 37.601,78.446 39.326,78.446 39.326,72.176 40.151,72.176 40.151,69.376 39.326,69.376 39.326,66.146 37.601,66.146 37.601,65.225 34.301,65.225 34.301,66.146 32.576,66.146 32.576,69.376 31.051,69.376 31.051,64.676" style="fill:none;stroke-width:0.050000mm;stroke:black"/>
<polygon points="45.626,64.676 45.626,78.676 59.626,78.676 59.626,64.676" style="fill:none;stroke-width:0.050000mm;stroke:black"/>
<polygon points="71.176,46.051 71.176,46.876 64.906,46.876 64.906,48.600 63.926,48.600 63.926,51.901 64.906,51.901 64.906,53.626 69.376,53.626 69.376,55.151 64.676,55.151 64.676,69.151 69.376,69.151 69.376,70.676 64.906,70.676 64.906,72.401 63.926,72.401 63.926,75.701 64.906,75.701 64.906,77.426 71.176,77.426 71.176,78.251 73.976,78.251 73.976,77.426 77.206,77.426 77.206,75.701 78.126,75.701 78.126,72.401 77.206,72.401 77.206,70.676 73.976,70.676 73.976,69.151 78.676,69.151 78.676,55.151 73.976,55.151 73.976,53.626 77.206,53.626 77.206,51.901 78.126,51.901 78.126,48.600 77.206,48.600 77.206,46.876 73.976,46.876 73.976,46.051" style="fill:none;stroke-width:0.050000mm;stroke:black"/>
<polygon points="45.626,45.626 45.626,59.626 59.626,59.626 59.626,45.626" style="fill:none;stroke-width:0.050000mm;stroke:black"/>
<polygon points="26.576,45.626 26.576,59.626 40.576,59.626 40.576,45.626" style="fill:none;stroke-width:0.050000mm;stroke:black"/>
<polygon points="7.526,45.626 7.526,59.626 21.526,59.626 21.526,45.626" style="fill:none;stroke-width:0.050000mm;stroke:black"/>
<polygon points="45.626,26.576 45.626,40.576 59.626,40.576 59.626,26.576" style="fill:none;stroke-width:0.050000mm;stroke:black"/>
<polygon points="26.576,26.576 26.576,40.576 40.576,40.576 40.576,26.576" style="fill:none;stroke-width:0.050000mm;stroke:black"/>
<polygon points="7.526,26.576 7.526,40.576 21.526,40.576 21.526,26.576" style="fill:none;stroke-width:0.050000mm;stroke:black"/>
<polygon points="71.176,7.950 71.176,8.776 64.906,8.776 64.906,10.501 63.926,10.501 63.926,13.801 64.906,13.801 64.906,15.526 69.376,15.526 69.376,17.051 64.676,17.051 64.676,31.051 69.376,31.051 69.376,32.576 64.906,32.576 64.906,34.301 63.926,34.301 63.926,37.601 64.906,37.601 64.906,39.326 71.176,39.326 71.176,40.151 73.976,40.151 73.976,39.326 77.206,39.326 77.206,37.601 78.126,37.601 78.126,34.301 77.206,34.301 77.206,32.576 73.976,32.576 73.976,31.051 78.676,31.051 78.676,17.051 73.976,17.051 73.976,15.526 77.206,15.526 77.206,13.801 78.126,13.801 78.126,10.501 77.206,10.501 77.206,8.776 73.976,8.776 73.976,7.950" style="fill:none;stroke-width:0.050000mm;stroke:black"/>
<polygon points="45.626,7.526 45.626,21.526 59.626,21.526 59.626,7.526" style="fill:none;stroke-width:0.050000mm;stroke:black"/>
<polygon points="26.576,7.526 26.576,21.526 40.576,21.526 40.576,7.526" style="fill:none;stroke-width:0.050000mm;stroke:black"/>
<polygon points="7.526,7.526 7.526,21.526 21.526,21.526 21.526,7.526" style="fill:none;stroke-width:0.050000mm;stroke:black"/>
</svg>